<?xml version="1.0" encoding="utf-8"?>
<!-- Generator: Adobe Illustrator 19.2.0, SVG Export Plug-In . SVG Version: 6.00 Build 0)  -->
<svg version="1.1" id="Layer_1" xmlns="http://www.w3.org/2000/svg" xmlns:xlink="http://www.w3.org/1999/xlink" x="0px" y="0px"
	 viewBox="0 0 345 60" style="enable-background:new 0 0 345 60;" xml:space="preserve">
<style type="text/css">
	.st0{opacity:0.5;fill-rule:evenodd;clip-rule:evenodd;fill:#FFFFFF;}
	.st1{fill-rule:evenodd;clip-rule:evenodd;fill:#FFFFFF;}
	.st2{fill:#FFFFFF;}
</style>
<g>
	<g>
		<path class="st0" d="M63,44.9H20.1C20.1,21.2,39.3,2,63,2V44.9z"/>
		<path class="st0" d="M3.2,44.9h42.9C46.1,21.2,26.8,2,3.2,2V44.9z"/>
		<path class="st1" d="M20.1,44.9h26c0-12.1-5-23-13-30.8C25.1,22,20.1,32.9,20.1,44.9"/>
	</g>
	<g>
		<path class="st2" d="M99.2,44.9V29.6c0-3.8-2-7.2-5.9-7.2c-3.8,0-6.1,3.4-6.1,7.2v15.4h-7.1V16.2h6.6l0.5,3.5c1.5-2.9,4.8-4,7.6-4
			c3.4,0,6.9,1.4,8.5,5.4c2.6-4.1,5.9-5.2,9.6-5.2c8.1,0,12.2,5,12.2,13.6v15.5H118V29.5c0-3.8-1.6-7-5.4-7c-3.8,0-6.2,3.3-6.2,7.1
			v15.4H99.2z"/>
		<path class="st2" d="M160.2,30.3c0,8.1-5.5,14.6-14.6,14.6c-9.1,0-14.6-6.6-14.6-14.6c0-8,5.6-14.6,14.5-14.6
			S160.2,22.3,160.2,30.3 M137.9,30.3c0,4.3,2.6,8.3,7.6,8.3c5.1,0,7.6-4,7.6-8.3c0-4.2-3-8.3-7.6-8.3
			C140.5,22,137.9,26.1,137.9,30.3"/>
		<path class="st2" d="M187.3,44.9v-15c0-4.4-2.4-7.7-6.9-7.7c-4.4,0-7.3,3.7-7.3,8v14.7h-7V16.2h6.3l0.5,3.9
			c2.9-2.9,5.8-4.3,9.4-4.3c6.8,0,12.2,5.1,12.2,14.1v15.1H187.3z"/>
		<path class="st2" d="M223.9,16.2h6.6v28.7l-6.5,0l-0.3-4.9c-1.6,3.3-5.9,4.9-9,4.9c-8.3,0.1-14.4-5-14.4-14.8
			c0-9.6,6.4-14.6,14.5-14.6c3.7,0,7.3,1.8,8.9,4.5L223.9,16.2z M207.2,30.1c0,5.3,3.7,8.5,8.3,8.5c10.9,0,10.9-16.9,0-16.9
			C210.8,21.7,207.2,24.8,207.2,30.1"/>
		<path class="st2" d="M297.5,16.2h6.6v28.7l-6.5,0l-0.3-4.9c-1.6,3.3-5.9,4.9-9,4.9c-8.3,0.1-14.4-5-14.4-14.8
			c0-9.6,6.4-14.6,14.5-14.6c3.7,0,7.3,1.8,8.9,4.5L297.5,16.2z M280.8,30.1c0,5.3,3.7,8.5,8.3,8.5c10.9,0,10.9-16.9,0-16.9
			C284.5,21.7,280.8,24.8,280.8,30.1"/>
		<path class="st2" d="M237.9,56V16.2h6.5l0.5,3.9c2.2-3.1,5.9-4.5,9.1-4.5c8.7,0,14.4,6.4,14.4,14.7c0,8.2-5.2,14.7-14.2,14.7
			c-3,0-7.3-0.9-9.3-4v15H237.9z M261.4,30.3c0-4.4-3-8-8-8c-5,0-8,3.6-8,8c0,4.4,3.2,8,8,8C258.1,38.2,261.4,34.7,261.4,30.3"/>
		<polygon class="st2" points="341.4,16.3 323.9,57 316.1,57 321.4,44.5 310,16.3 318.2,16.3 322.6,28.7 325.3,36.8 328.3,28.9 
			333.5,16.3 		"/>
	</g>
</g>
</svg>
