<svg width="265" height="49" viewBox="0 0 265 49" xmlns="http://www.w3.org/2000/svg"><title>Logo</title><desc>Created with Sketch.</desc><g fill="none"><path d="M78.099 39.27v-12.165c0-2.995-1.565-5.713-4.649-5.713-3.038 0-4.833 2.718-4.833 5.713v12.165h-5.617v-22.763h5.202l.415 2.765c1.197-2.305 3.821-3.134 5.984-3.134 2.716 0 5.432 1.106 6.721 4.239 2.026-3.225 4.65-4.147 7.596-4.147 6.445 0 9.621 3.962 9.621 10.782v12.257h-5.616v-12.257c0-2.995-1.243-5.529-4.282-5.529-3.038 0-4.925 2.627-4.925 5.621v12.165h-5.617zm30.708-11.335c0 3.456 2.072 6.681 6.168 6.681 4.097 0 6.169-3.226 6.169-6.681 0-3.41-2.394-6.727-6.169-6.727-4.051 0-6.168 3.317-6.168 6.727m17.999 0c0 6.543-4.465 11.842-11.831 11.842-7.365 0-11.785-5.299-11.785-11.842 0-6.497 4.512-11.842 11.739-11.842 7.227 0 11.876 5.345 11.876 11.842" fill="#505050"/><path d="M147.386 39.27v-11.888c0-3.456-1.887-6.082-5.477-6.082-3.453 0-5.801 2.903-5.801 6.359v11.612h-5.57v-22.763h5.017l.368 3.087c2.302-2.257 4.604-3.41 7.457-3.41 5.34 0 9.621 4.009 9.621 11.151v11.934h-5.617zm14.826-11.382c0 4.332 2.992 6.912 6.721 6.912 8.838 0 8.838-13.777 0-13.777-3.728 0-6.721 2.534-6.721 6.866zm13.626-11.335h5.385v22.717h-5.293l-.276-3.318c-1.289 2.673-4.834 3.963-7.366 4.009-6.721.046-11.692-4.101-11.692-12.072 0-7.833 5.202-11.934 11.83-11.888 3.039 0 5.939 1.429 7.228 3.686l.184-3.133z" fill="#505050"/><path d="M204.979 27.935c0-3.548-2.394-6.451-6.445-6.451s-6.445 2.904-6.445 6.451c0 3.548 2.624 6.45 6.445 6.45s6.445-2.903 6.445-6.45zm-19.012 20.827v-32.209h5.248l.368 3.134c1.749-2.534 4.787-3.64 7.365-3.64 6.997 0 11.646 5.207 11.646 11.888 0 6.635-4.189 11.888-11.462 11.888-2.394 0-5.938-.737-7.549-3.226v12.165h-5.617zm33.148-20.874c0 4.332 2.992 6.912 6.721 6.912 8.838 0 8.838-13.777 0-13.777-3.728 0-6.721 2.534-6.721 6.866zm13.626-11.335h5.385v22.717h-5.293l-.276-3.318c-1.289 2.673-4.834 3.963-7.366 4.009-6.721.046-11.692-4.101-11.692-12.072 0-7.833 5.202-11.934 11.83-11.888 3.039 0 5.939 1.429 7.228 3.686l.184-3.133zm32.041 0l-13.856 32.208h-6.168l4.234-9.86-9.067-22.348h6.537l3.452 9.814 2.164 6.405 2.347-6.267 4.143-9.953z" fill="#888"/><path d="M.134 39.299h38.962c0-21.544-17.447-39.016-38.962-39.016v39.016z" fill="#9E3EFF"/><path d="M54.467 39.299h-38.962c0-21.544 17.447-39.016 38.962-39.016v39.016z" fill="#21B6FA"/><path d="M15.505 39.299h23.591c0-10.965-4.522-20.873-11.796-27.961-7.274 7.088-11.795 16.996-11.795 27.961" fill="#1B3C9A"/></g></svg>