<svg xmlns="http://www.w3.org/2000/svg" viewBox="0 0 60 64"><title>Asset 37monapay</title><g id="Layer_2" data-name="Layer 2"><g id="Layer_1-2" data-name="Layer 1"><path d="M44,34H40a2,2,0,0,0-4,0H32a6,6,0,0,1,12,0Z" style="fill:#9e3eff"/><path d="M52,36H48a2,2,0,0,0-4,0H40a6,6,0,0,1,12,0Z" style="fill:#9e3eff"/><path d="M36,18H32a2,2,0,0,0-4,0H24a6,6,0,0,1,12,0Z" style="fill:#9e3eff"/><path d="M60,38H56a2,2,0,0,0-4,0H48a6,6,0,0,1,12,0Z" style="fill:#9e3eff"/><rect x="48" y="34" width="4" height="4" style="fill:#9e3eff"/><polygon points="56 64 52 64 52 59.4 56 53.4 56 38 60 38 60 54.6 56 60.6 56 64" style="fill:#9e3eff"/><rect x="32" y="18" width="4" height="20" style="fill:#9e3eff"/><rect x="40" y="32" width="4" height="6" style="fill:#9e3eff"/><path d="M26,64H22V60.83l-6-6V36h2a9.76,9.76,0,0,1,6,2.18V18h4V46H24a6.57,6.57,0,0,0-4-5.57V53.17l6,6Z" style="fill:#9e3eff"/><rect x="24" y="46" width="4" height="2" style="fill:#9e3eff"/><path d="M28,8a4,4,0,1,1,4-4A4,4,0,0,1,28,8Zm0-4h0Z" style="fill:#21b6fa"/><path d="M16,8a4,4,0,1,1,4-4A4,4,0,0,1,16,8Zm0-4h0Z" style="fill:#1b3c9a"/><path d="M4,8A4,4,0,1,1,8,4,4,4,0,0,1,4,8ZM4,4H4Z" style="fill:#21b6fa"/><path d="M16,20a4,4,0,1,1,4-4A4,4,0,0,1,16,20Zm0-4h0Z" style="fill:#21b6fa"/><path d="M4,20a4,4,0,1,1,4-4A4,4,0,0,1,4,20Zm0-4H4Z" style="fill:#1b3c9a"/><path d="M16,32a4,4,0,1,1,4-4A4,4,0,0,1,16,32Zm0-4h0Z" style="fill:#1b3c9a"/><path d="M4,32a4,4,0,1,1,4-4A4,4,0,0,1,4,32Zm0-4H4Z" style="fill:#21b6fa"/></g></g></svg>