<svg xmlns="http://www.w3.org/2000/svg" viewBox="0 0 60 60"><title>Asset 38monapay</title><g id="Layer_2" data-name="Layer 2"><g id="Layer_1-2" data-name="Layer 1"><polygon points="38.64 27.91 38.64 36.7 32.08 27.91 28.98 27.91 28.98 43.34 32.52 43.34 32.52 34.56 39.08 43.34 42.16 43.34 42.16 27.91 38.64 27.91" style="fill:#1b3c9a"/><rect x="41.39" y="36.2" width="3.31" height="3.52" style="fill:#1b3c9a"/><rect x="41.39" y="31.54" width="3.31" height="3.52" style="fill:#1b3c9a"/><rect x="26.55" y="36.2" width="3.31" height="3.52" style="fill:#1b3c9a"/><rect x="26.55" y="31.54" width="3.31" height="3.52" style="fill:#1b3c9a"/><rect y="5.63" width="3.75" height="37.5" style="fill:#21b6fa"/><rect x="5.63" width="37.5" height="3.75" style="fill:#21b6fa"/><path d="M54.38,60H16.88a5.63,5.63,0,0,1-5.62-5.62V16.88a5.63,5.63,0,0,1,5.63-5.62h37.5A5.63,5.63,0,0,1,60,16.88v37.5A5.63,5.63,0,0,1,54.38,60ZM16.88,15A1.88,1.88,0,0,0,15,16.88v37.5a1.88,1.88,0,0,0,1.88,1.88h37.5a1.88,1.88,0,0,0,1.88-1.87V16.88A1.88,1.88,0,0,0,54.38,15Z" style="fill:#9e3eff"/><path d="M3.75,5.63H0A5.63,5.63,0,0,1,5.63,0V3.75A1.88,1.88,0,0,0,3.75,5.63Z" style="fill:#21b6fa"/><path d="M48.75,5.63H45a1.88,1.88,0,0,0-1.87-1.87V0A5.63,5.63,0,0,1,48.75,5.63Z" style="fill:#21b6fa"/><path d="M5.63,48.75A5.63,5.63,0,0,1,0,43.13H3.75A1.88,1.88,0,0,0,5.63,45Z" style="fill:#21b6fa"/><rect x="5.63" y="45" width="1.88" height="3.75" style="fill:#21b6fa"/><rect x="45" y="5.63" width="3.75" height="1.88" style="fill:#21b6fa"/></g></g></svg>