<svg xmlns="http://www.w3.org/2000/svg" xmlns:xlink="http://www.w3.org/1999/xlink" viewBox="0 0 274.65 58.48"><defs><mask id="mask" x="62.87" y="15.86" width="45.53" height="33.13" maskUnits="userSpaceOnUse"><g id="mask-2" data-name="mask"><g id="mask-2-2" data-name="mask-2"><path id="path-1" d="M83,44V31.82c0-3-1.56-5.71-4.65-5.71s-4.83,2.72-4.83,5.71V44H67.87V21.22h5.2L73.48,24c1.2-2.3,3.82-3.13,6-3.13a6.8,6.8,0,0,1,6.72,4.24A8.22,8.22,0,0,1,93.8,21c6.44,0,9.62,4,9.62,10.78V44H97.79V31.73c0-3-1.24-5.53-4.28-5.53s-4.92,2.63-4.92,5.62V44Z" style="fill:#fff"/></g></g></mask><mask id="mask-3" x="103.06" y="15.81" width="33.61" height="33.68" maskUnits="userSpaceOnUse"><g id="mask-2-2-2" data-name="mask-2-2"><g id="mask-4"><path id="path-3" d="M113.67,32.65c0,3.46,2.07,6.68,6.17,6.68S126,36.11,126,32.65s-2.39-6.73-6.17-6.73C115.79,25.92,113.67,29.24,113.67,32.65Zm18,0c0,6.54-4.47,11.84-11.83,11.84s-11.78-5.3-11.78-11.84,4.51-11.84,11.74-11.84a11.48,11.48,0,0,1,11.87,11.08Q131.68,32.27,131.67,32.65Z" style="fill:#fff"/></g></g></mask><mask id="mask-4-2" x="130.4" y="15.9" width="32.47" height="33.09" maskUnits="userSpaceOnUse"><g id="mask-3-2" data-name="mask-3"><g id="mask-6"><path id="path-5" d="M152.25,44V32.1c0-3.46-1.89-6.08-5.48-6.08s-5.8,2.9-5.8,6.36V44H135.4V21.22h5l.37,3.09c2.3-2.26,4.6-3.41,7.46-3.41,5.34,0,9.62,4,9.62,11.15V44Z" style="fill:#fff"/></g></g></mask><mask id="mask-5" x="156.46" y="15.72" width="34.63" height="33.96" maskUnits="userSpaceOnUse"><g id="mask-4-2"><g id="mask-8"><path id="path-7" d="M167.08,32.61a6.5,6.5,0,0,0,6.07,6.9q.32,0,.65,0c8.84,0,8.84-13.78,0-13.78a6.47,6.47,0,0,0-6.72,6.87ZM180.7,21.27h5.39V44H180.8l-.28-3.32c-1.29,2.67-4.83,4-7.37,4-6.72,0-11.69-4.1-11.69-12.07s5.2-11.93,11.83-11.89c3,0,5.94,1.43,7.23,3.69Z" style="fill:#fff"/></g></g></mask><mask id="mask-6-2" x="185.83" y="15.76" width="34.63" height="42.72" maskUnits="userSpaceOnUse"><g id="mask-5-2" data-name="mask-5"><g id="mask-10"><path id="path-9" d="M209.85,32.65a6.44,6.44,0,1,0-6.45,6.44A6.45,6.45,0,0,0,209.85,32.65Zm-19,20.83V21.27h5.25l.37,3.13a9,9,0,0,1,7.37-3.64c7,0,11.65,5.21,11.65,11.89S211.27,44.54,204,44.54c-2.39,0-5.94-.74-7.55-3.23V53.48Z" style="fill:#fff"/></g></g></mask><mask id="mask-7" x="213.37" y="15.72" width="34.62" height="33.96" maskUnits="userSpaceOnUse"><g id="mask-6-2"><g id="mask-12"><path id="path-11" d="M224,32.61a6.5,6.5,0,0,0,6.07,6.9q.32,0,.65,0c8.84,0,8.84-13.78,0-13.78A6.47,6.47,0,0,0,224,32.61Zm13.63-11.34H243V44h-5.3l-.28-3.32c-1.29,2.67-4.83,4-7.37,4-6.72,0-11.69-4.1-11.69-12.07s5.2-11.93,11.83-11.89c3,0,5.94,1.43,7.23,3.69Z" style="fill:#fff"/></g></g></mask><mask id="mask-8-2" x="239.79" y="16.27" width="34.86" height="42.21" maskUnits="userSpaceOnUse"><g id="mask-7-2" data-name="mask-7"><g id="mask-14"><polygon id="path-13" points="269.65 21.27 255.79 53.48 249.62 53.48 253.86 43.62 244.79 21.27 251.33 21.27 254.78 31.09 256.94 37.49 259.29 31.22 263.43 21.27 269.65 21.27" style="fill:#fff"/></g></g></mask><mask id="mask-9" x="0" y="0" width="48.96" height="49.02" maskUnits="userSpaceOnUse"><g id="mask-8-2"><g id="mask-16"><path id="path-15" d="M5,44H44A39,39,0,0,0,5,5Z" style="fill:#fff"/></g></g></mask><mask id="mask-10-2" x="15.37" y="0" width="48.96" height="49.02" maskUnits="userSpaceOnUse"><g id="mask-9-2" data-name="mask-9"><g id="mask-18"><path id="path-17" d="M59.33,44h-39a39,39,0,0,1,39-39Z" style="fill:#fff"/></g></g></mask><mask id="mask-11" x="15.37" y="11.05" width="33.59" height="37.97" maskUnits="userSpaceOnUse"><g id="mask-10-2"><g id="mask-20"><path id="path-19" d="M20.37,44a38.92,38.92,0,0,1,11.8-28A38.92,38.92,0,0,1,44,44Z" style="fill:#fff"/></g></g></mask></defs><title>Asset 1monapay logo light</title><g id="Layer_2" data-name="Layer 2"><g id="Layer_1-2" data-name="Layer 1"><g id="Group-290"><g style="mask:url(#mask)"><polygon id="Fill-288" points="62.87 48.99 108.4 48.99 108.4 15.86 62.87 15.86 62.87 48.99" style="fill:#fff"/></g></g><g id="Group-293"><g style="mask:url(#mask-3)"><polygon id="Fill-291" points="103.06 49.49 136.67 49.49 136.67 15.81 103.06 15.81 103.06 49.49" style="fill:#fff"/></g></g><g id="Group-296"><g style="mask:url(#mask-4-2)"><polygon id="Fill-294" points="130.4 48.99 162.87 48.99 162.87 15.9 130.4 15.9 130.4 48.99" style="fill:#fff"/></g></g><g id="Group-299"><g style="mask:url(#mask-5)"><polygon id="Fill-297" points="156.46 49.68 191.09 49.68 191.09 15.72 156.46 15.72 156.46 49.68" style="fill:#fff"/></g></g><g id="Group-302"><g style="mask:url(#mask-6-2)"><polygon id="Fill-300" points="185.83 58.48 220.46 58.48 220.46 15.76 185.83 15.76 185.83 58.48" style="fill:#fff"/></g></g><g id="Group-305"><g style="mask:url(#mask-7)"><polygon id="Fill-303" points="213.37 49.68 247.99 49.68 247.99 15.72 213.37 15.72 213.37 49.68" style="fill:#fff"/></g></g><g id="Group-308"><g style="mask:url(#mask-8-2)"><polygon id="Fill-306" points="239.79 58.48 274.65 58.48 274.65 16.27 239.79 16.27 239.79 58.48" style="fill:#fff"/></g></g><g id="Group-311"><g style="mask:url(#mask-9)"><polygon id="Fill-309" points="0 49.02 48.96 49.02 48.96 0 0 0 0 49.02" style="fill:#9e3eff"/></g></g><g id="Group-314"><g style="mask:url(#mask-10-2)"><polygon id="Fill-312" points="15.37 49.02 64.33 49.02 64.33 0 15.37 0 15.37 49.02" style="fill:#21b6fa"/></g></g><g id="Group-317"><g style="mask:url(#mask-11)"><polygon id="Fill-315" points="15.37 49.02 48.96 49.02 48.96 11.05 15.37 11.05 15.37 49.02" style="fill:#1b3c9a"/></g></g></g></g></svg>