<svg xmlns="http://www.w3.org/2000/svg" xmlns:xlink="http://www.w3.org/1999/xlink" viewBox="0 0 70 70"><defs><clipPath id="clip-path"><polyline points="53.75 57.5 50 57.5 50 52.96 36.88 45.46 36.88 39.85 42.5 34.22 42.5 28.28 37.97 23.75 32.03 23.75 27.5 28.28 27.5 34.22 33.13 39.85 33.13 45.46 20 52.96 20 57.5 16.25 57.5 16.25 50.79 29.38 43.29 29.38 41.4 23.75 35.78 23.75 26.72 30.47 20 39.53 20 46.25 26.72 46.25 35.78 40.63 41.4 40.63 43.29 53.75 50.79 53.75 57.5" style="fill:none;clip-rule:evenodd"/></clipPath><clipPath id="clip-path-2"><path d="M35,65A30,30,0,1,1,65,35,30,30,0,0,1,35,65ZM35,8.75A26.25,26.25,0,1,0,61.25,35,26.28,26.28,0,0,0,35,8.75Z" style="fill:none;clip-rule:evenodd"/></clipPath></defs><title>Asset 39user</title><g id="Layer_2" data-name="Layer 2"><g id="Layer_1-2" data-name="Layer 1"><g style="clip-path:url(#clip-path)"><rect x="11.25" y="15" width="47.5" height="47.5" style="fill:#21b6fa"/></g><g style="clip-path:url(#clip-path-2)"><rect width="70" height="70" style="fill:#9e3eff"/></g></g></g></svg>